# xmcd
#
# Track frame offsets: 
#        150
#        15017
#        27689
#        44709
#        51581
#        58248
#        79122
#        91649
#        115816
#        130728
#        142013
#        155150
#
# Disc length: 2458 seconds
#
# Revision: 0
# Processed by: cddbd v1.5.2PL0 Copyright (c) Steve Scherf et al.
# Submitted via: ExactAudioCopy v0.95b3
#
DISCID=a509980c
DTITLE=Gordon Lightfoot  - The Original Lightfoot - The United Artists
DTITLE=Years [CD3)
DYEAR=1900
DGENRE=
TTITLE0=In a Windowpane
TTITLE1=The Lost Children
TTITLE2=Leaves of Grass
TTITLE3=I'm Not Saying
TTITLE4=Ribbon of Darkness
TTITLE5=Apology
TTITLE6=Bitter Green
TTITLE7=Ballad of Yarmouth Castle
TTITLE8=Softly
TTITLE9=Boss Man
TTITLE10=Pussy Willows, Cat-tails
TTITLE11=Canadian Railroad Trilogy
EXTD=
EXTT0=
EXTT1=
EXTT2=
EXTT3=
EXTT4=
EXTT5=
EXTT6=
EXTT7=
EXTT8=
EXTT9=
EXTT10=
EXTT11=
PLAYORDER=
